<?xml version="1.0" standalone="no"?>
<!DOCTYPE svg PUBLIC "-//W3C//DTD SVG 20010904//EN"
 "http://www.w3.org/TR/2001/REC-SVG-20010904/DTD/svg10.dtd">
    <svg version="1.0" xmlns="http://www.w3.org/2000/svg"
    width="600.000000pt" height="200.000000pt" viewBox="0 0 600.000000 200.000000"
    preserveAspectRatio="xMidYMid meet">

    <g transform="translate(0.000000,200.000000) scale(0.100000,-0.100000)"
    fill="#ffffff" stroke="none">
    <path d="M2098 1381 c-120 -39 -202 -112 -255 -227 -24 -51 -28 -71 -28 -154
    0 -82 4 -103 27 -153 56 -120 148 -199 273 -232 182 -50 383 42 468 214 30 61
    32 72 32 171 0 99 -2 110 -32 171 -41 82 -111 150 -199 191 -86 40 -200 48
    -286 19z m232 -171 c77 -39 130 -128 130 -216 0 -54 -40 -134 -86 -173 -50
    -41 -131 -65 -187 -56 -201 33 -282 260 -142 400 74 74 191 93 285 45z"/>
    <path d="M4050 1386 c-119 -35 -203 -105 -257 -214 -36 -72 -38 -81 -38 -171
    0 -87 3 -102 32 -163 97 -205 336 -294 537 -200 59 28 136 85 136 102 0 4 -29
    26 -64 49 l-64 42 -39 -25 c-119 -78 -278 -42 -349 80 -40 68 -40 160 0 228
    72 123 228 159 349 80 l37 -24 65 41 c36 22 65 44 65 49 0 17 -77 74 -137 103
    -76 35 -198 45 -273 23z"/>
    <path d="M890 1000 l0 -390 80 0 80 0 2 232 3 231 94 -151 94 -152 67 0 67 0
    94 152 94 151 3 -231 2 -232 80 0 80 0 0 390 0 391 -81 -3 -81 -3 -127 -202
    c-69 -112 -128 -203 -131 -203 -3 0 -62 91 -131 203 l-127 202 -81 3 -81 3 0
    -391z"/>
    <path d="M2629 1313 c48 -129 237 -625 254 -666 l16 -38 77 3 76 3 129 335
    c71 184 138 359 149 388 l20 52 -88 0 -87 0 -100 -261 c-94 -245 -101 -258
    -112 -232 -6 15 -51 133 -100 260 l-88 233 -87 0 -87 0 28 -77z"/>
    <path d="M4540 1000 l0 -390 280 0 280 0 0 80 0 80 -200 0 -200 0 0 310 0 310
    -80 0 -80 0 0 -390z"/>
    <path d="M4940 1135 l0 -255 80 0 80 0 0 255 0 255 -80 0 -80 0 0 -255z"/>
    <path d="M3370 885 l0 -55 155 0 155 0 0 55 0 55 -155 0 -155 0 0 -55z"/>
    </g>
    </svg>
